<?xml version="1.0" encoding="UTF-8" standalone="no"?>
<!-- Created with Inkscape (http://www.inkscape.org/) -->

<svg
   width="48"
   height="48"
   viewBox="0 0 12.7 12.7"
   version="1.1"
   id="svg5"
   xml:space="preserve"
   inkscape:version="1.2.1 (9c6d41e410, 2022-07-14)"
   sodipodi:docname="stu-logo-icon.svg"
   xmlns:inkscape="http://www.inkscape.org/namespaces/inkscape"
   xmlns:sodipodi="http://sodipodi.sourceforge.net/DTD/sodipodi-0.dtd"
   xmlns="http://www.w3.org/2000/svg"
   xmlns:svg="http://www.w3.org/2000/svg"><sodipodi:namedview
     id="namedview7"
     pagecolor="#ffffff"
     bordercolor="#000000"
     borderopacity="0.25"
     inkscape:showpageshadow="2"
     inkscape:pageopacity="0.0"
     inkscape:pagecheckerboard="0"
     inkscape:deskcolor="#d1d1d1"
     inkscape:document-units="px"
     showgrid="false"
     showguides="true"
     inkscape:zoom="11.313709"
     inkscape:cx="17.766057"
     inkscape:cy="27.091027"
     inkscape:window-width="1920"
     inkscape:window-height="1001"
     inkscape:window-x="-9"
     inkscape:window-y="-9"
     inkscape:window-maximized="1"
     inkscape:current-layer="layer1"><sodipodi:guide
       position="130.80405,-93.361651"
       orientation="1,0"
       id="guide281"
       inkscape:locked="false" /><sodipodi:guide
       position="135.88936,-95.619251"
       orientation="1,0"
       id="guide337"
       inkscape:locked="false" /><sodipodi:guide
       position="131.41794,-157.8047"
       orientation="0,-1"
       id="guide339"
       inkscape:locked="false" /><sodipodi:guide
       position="84.741081,-93.699711"
       orientation="-1,0"
       id="guide343"
       inkscape:locked="false"
       inkscape:label=""
       inkscape:color="rgb(0,134,229)" /><sodipodi:guide
       position="101.73229,-94.290881"
       orientation="1,0"
       id="guide345"
       inkscape:locked="false" /><sodipodi:guide
       position="-4.6963542,-130.24114"
       orientation="-0.19936793,0.9799247"
       id="guide386"
       inkscape:locked="false"
       inkscape:label=""
       inkscape:color="rgb(0,134,229)" /><sodipodi:guide
       position="5.1759115,9.7565104"
       orientation="0.2419219,0.97029573"
       id="guide290"
       inkscape:locked="false"
       inkscape:label=""
       inkscape:color="rgb(0,134,229)" /></sodipodi:namedview><defs
     id="defs2" /><g
     inkscape:label="Layer 1"
     inkscape:groupmode="layer"
     id="layer1"><path
       id="path851"
       style="fill:#41b883;stroke-width:0.249019"
       d="M 6.35 0 A 6.3499999 6.3499999 0 0 0 0 6.35 A 6.3499999 6.3499999 0 0 0 6.35 12.7 A 6.3499999 6.3499999 0 0 0 12.7 6.35 A 6.3499999 6.3499999 0 0 0 6.35 0 z M 2.9378052 1.4645101 L 6.9752848 2.4830526 L 6.9696004 3.0835327 L 3.3946248 2.1957316 L 2.7595215 6.9773519 L 7.4010986 6.2445801 L 7.4010986 11.002429 L 2.8111979 11.002429 L 2.8111979 8.8222005 L 3.4845418 8.7405518 L 3.4845418 10.458276 L 6.6993327 10.458276 L 6.6993327 7.0683024 L 1.9848918 7.7814372 L 2.9378052 1.4645101 z M 7.3334025 2.578654 L 11.626681 3.6478394 L 11.612211 4.240568 L 7.3277181 3.1858521 L 7.3334025 2.578654 z M 8.7534709 3.8369751 L 9.4216471 4.0354126 L 9.4216471 11.003463 L 8.7534709 11.003463 L 8.7534709 3.8369751 z " /></g></svg>
