<?xml version="1.0" encoding="UTF-8" standalone="no"?>
<!-- Created with Inkscape (http://www.inkscape.org/) -->

<svg
   width="48"
   height="48"
   viewBox="0 0 12.7 12.7"
   version="1.1"
   id="svg5"
   xml:space="preserve"
   inkscape:version="1.2.1 (9c6d41e410, 2022-07-14)"
   sodipodi:docname="stu-logo.svg"
   xmlns:inkscape="http://www.inkscape.org/namespaces/inkscape"
   xmlns:sodipodi="http://sodipodi.sourceforge.net/DTD/sodipodi-0.dtd"
   xmlns="http://www.w3.org/2000/svg"
   xmlns:svg="http://www.w3.org/2000/svg"><sodipodi:namedview
     id="namedview7"
     pagecolor="#ffffff"
     bordercolor="#000000"
     borderopacity="0.25"
     inkscape:showpageshadow="2"
     inkscape:pageopacity="0.0"
     inkscape:pagecheckerboard="0"
     inkscape:deskcolor="#d1d1d1"
     inkscape:document-units="px"
     showgrid="false"
     showguides="true"
     inkscape:zoom="11.313709"
     inkscape:cx="21.655145"
     inkscape:cy="27.00264"
     inkscape:window-width="1920"
     inkscape:window-height="1001"
     inkscape:window-x="-9"
     inkscape:window-y="-9"
     inkscape:window-maximized="1"
     inkscape:current-layer="layer1"><sodipodi:guide
       position="130.80405,-93.361651"
       orientation="1,0"
       id="guide281"
       inkscape:locked="false" /><sodipodi:guide
       position="135.88936,-95.619251"
       orientation="1,0"
       id="guide337"
       inkscape:locked="false" /><sodipodi:guide
       position="131.41794,-157.8047"
       orientation="0,-1"
       id="guide339"
       inkscape:locked="false" /><sodipodi:guide
       position="84.741081,-93.699711"
       orientation="-1,0"
       id="guide343"
       inkscape:locked="false"
       inkscape:label=""
       inkscape:color="rgb(0,134,229)" /><sodipodi:guide
       position="101.73229,-94.290881"
       orientation="1,0"
       id="guide345"
       inkscape:locked="false" /><sodipodi:guide
       position="-4.6963542,-130.24114"
       orientation="-0.19936793,0.9799247"
       id="guide386"
       inkscape:locked="false"
       inkscape:label=""
       inkscape:color="rgb(0,134,229)" /><sodipodi:guide
       position="5.1759115,9.7565104"
       orientation="0.2419219,0.97029573"
       id="guide290"
       inkscape:locked="false"
       inkscape:label=""
       inkscape:color="rgb(0,134,229)" /></sodipodi:namedview><defs
     id="defs2" /><g
     inkscape:label="Layer 1"
     inkscape:groupmode="layer"
     id="layer1"><g
       id="g162"
       transform="matrix(0.08125452,0,0,0.08125452,-0.36539983,-3.9500502)"><g
         id="g356"
         style="fill:#1a1a1a"><path
           style="fill:#1a1a1a;stroke-width:0.264583"
           d="m 115.36116,96.491703 -0.0509,5.216507 -31.051761,-7.70905 -5.518526,41.53534 40.318267,-6.36823 v 41.32824 H 79.189389 v -18.93656 l 5.847879,-0.7095 v 14.92174 h 27.925342 v -29.44542 l -40.949248,6.19421 8.27617,-54.870394 z"
           id="path179"
           sodipodi:nodetypes="ccccccccccccccc" /><path
           style="fill:#1a1a1a;stroke-width:0.264583"
           d="m 118.4727,97.324193 -0.0509,5.273487 37.21574,9.16375 0.1272,-5.1514 z"
           id="path181"
           sodipodi:nodetypes="ccccc" /><path
           style="fill:#1a1a1a;stroke-width:0.264583"
           d="m 136.60889,109.97746 2.4e-4,60.52724 h -5.80484 v -62.24947 z"
           id="path341"
           sodipodi:nodetypes="ccccc" /></g><g
         id="g487"
         style="display:inline;fill:#808080"><path
           style="fill:#808080;stroke-width:0.264583"
           d="m 84.74108,105.46953 16.99121,-4.86172 v 7.17682 l -16.99121,4.29948 z"
           id="path347" /><path
           style="fill:#808080;stroke-width:0.264583"
           d="m 84.639323,114.97422 v 6.58151 L 101.63053,118.05 v -7.11068 z"
           id="path349"
           sodipodi:nodetypes="ccccc" /><path
           style="fill:#808080;stroke-width:0.264583"
           d="m 84.639323,124.20671 16.991207,-3.43958 v 7.34219 l -16.991207,2.6789 z"
           id="path351"
           sodipodi:nodetypes="ccccc" /><path
           style="fill:#808080;stroke-width:0.264583"
           d="m 34.283999,125.46634 2.221677,-0.53788 v -2.03459 l 5.378799,-1.3564 v 1.96444 l 2.38538,-0.53788 v -1.94105 l 6.056995,-1.73057 v 2.08136 l 2.408767,-0.58465 v -2.17491 l 7.10937,-1.80072 v 2.12813 l 2.45554,-0.58465 v -2.24507 l 8.231901,-2.12813 v 2.36199 l 2.291834,-0.63142 0.771742,-4.8643 -37.090328,10.68743 -3.203893,2.24507 0.970521,-0.0234 z"
           id="path358" /><path
           style="fill:#808080;stroke-width:0.264583"
           d="m 28.872656,119.98854 2.215885,-0.59531 4.729427,1.91823 -4.034895,2.91041 v 1.95131 l -2.94349,0.66145 z"
           id="path360" /><path
           style="fill:#808080;stroke-width:0.264583"
           d="m 67.733332,141.22135 4.630209,-24.20937 -45.706771,11.37708 -16.007291,10.18646 43.127083,-8.86354 -10.914063,15.08125 z"
           id="path362" /><path
           style="fill:#808080;stroke-width:0.264583"
           d="m 15.213541,159.94062 v 10.58334 h 61.714062 v -5.55625 l -32.014583,0.79375 v 3.70416 H 22.092708 v -7.34218 z"
           id="path364" /><path
           style="fill:#808080;stroke-width:0.264583"
           d="m 15.941146,138.8401 2.248958,-0.39687 v 18.91771 L 15.875,157.62552 Z"
           id="path384" /><path
           style="fill:#808080;stroke-width:0.264583"
           d="m 21.166666,137.6164 2.447396,-0.52916 -0.03307,20.04219 -2.38125,0.0992 z"
           id="path449" /><path
           style="fill:#808080;stroke-width:0.264583"
           d="m 26.789062,136.525 2.546615,-0.56224 -0.09922,20.70364 -2.447396,0.19844 z"
           id="path451" /><path
           style="fill:#808080;stroke-width:0.264583"
           d="m 32.54375,135.33437 2.447395,-0.49609 -0.03307,21.3651 -2.546614,0.16537 z"
           id="path453" /><path
           style="fill:#808080;stroke-width:0.264583"
           d="m 38.695312,134.04453 2.61276,-0.46302 -0.06615,22.19193 -2.546615,0.0992 z"
           id="path455" /><path
           style="fill:#808080;stroke-width:0.264583"
           d="m 45.442187,132.68854 2.745052,-0.59531 0.06615,2.8112 -2.745052,3.175 z"
           id="path457" /><path
           style="fill:#808080;stroke-width:0.264583"
           d="m 51.028433,144.80663 2.525699,-0.28063 -0.04677,20.11203 -2.38538,0.14031 z"
           id="path459" /><path
           style="fill:#808080;stroke-width:0.264583"
           d="m 56.173372,144.0115 2.619243,-0.23386 -0.09355,20.76684 -2.61924,0.0935 z"
           id="path461" /><path
           style="fill:#808080;stroke-width:0.264583"
           d="m 61.739261,143.40346 2.806329,-0.3274 -0.04677,21.3281 -2.806329,0.0936 z"
           id="path463" /><path
           style="fill:#808080;stroke-width:0.264583"
           d="m 67.913186,142.56156 3.040192,-0.3274 0.04677,21.88937 -3.040189,0.0936 z"
           id="path465" /><path
           style="fill:#808080;stroke-width:0.264583"
           d="m 45.509317,145.46144 3.274052,-0.32741 -0.04677,19.64431 -2.33861,0.0936 -0.04677,-6.45456 -34.845263,1.96443 0.04677,-1.59025 34.798491,-2.47893 0.09355,-0.93544 -0.888672,0.0468 z"
           id="path467" /></g></g></g></svg>
